<svg width="1200" height="872" viewBox="0 0 1200 872" fill="none" xmlns="http://www.w3.org/2000/svg">
<path d="M843.996 65.4401C915.708 92.0187 978.456 139.976 1041.2 198.911C1104.64 257.846 1168.77 327.759 1190.83 408.073C1213.59 488.386 1194.28 579.678 1129.47 635.724C1063.96 691.77 952.943 712.571 858.477 749.55C764.01 785.951 686.781 839.108 594.383 860.486C501.985 882.443 395.106 873.198 312.361 831.019C229.617 788.262 172.385 712.571 114.464 634.568C57.2318 556.566 0 476.83 0 397.095C0.689539 317.359 58.6109 238.201 119.98 165.976C182.038 94.3299 247.545 30.1946 329.6 8.81616C411.655 -11.9845 510.949 8.81614 600.589 22.1054C690.919 34.8169 771.595 39.4393 843.996 65.4401Z" fill="#4E7D96"/>
</svg>
