<svg width="30" height="30" viewBox="0 0 43 33" fill="none" xmlns="http://www.w3.org/2000/svg">
<path fill-rule="evenodd" clip-rule="evenodd" d="M26.25 28.875C26.25 29.2397 26.1117 29.5894 25.8656 29.8473C25.6194 30.1051 25.2856 30.25 24.9375 30.25H3.9375C3.5894 30.25 3.25556 30.1051 3.00942 29.8473C2.76328 29.5894 2.625 29.2397 2.625 28.875V4.125C2.625 3.76033 2.76328 3.41059 3.00942 3.15273C3.25556 2.89487 3.5894 2.75 3.9375 2.75H24.9375C25.2856 2.75 25.6194 2.89487 25.8656 3.15273C26.1117 3.41059 26.25 3.76033 26.25 4.125V9.625C26.25 9.98967 26.3883 10.3394 26.6344 10.5973C26.8806 10.8551 27.2144 11 27.5625 11C27.9106 11 28.2444 10.8551 28.4906 10.5973C28.7367 10.3394 28.875 9.98967 28.875 9.625V4.125C28.875 3.03098 28.4602 1.98177 27.7217 1.20818C26.9833 0.434597 25.9818 0 24.9375 0H3.9375C2.89321 0 1.89169 0.434597 1.15327 1.20818C0.414843 1.98177 0 3.03098 0 4.125L0 28.875C0 29.969 0.414843 31.0182 1.15327 31.7918C1.89169 32.5654 2.89321 33 3.9375 33H24.9375C25.9818 33 26.9833 32.5654 27.7217 31.7918C28.4602 31.0182 28.875 29.969 28.875 28.875V23.375C28.875 23.0103 28.7367 22.6606 28.4906 22.4027C28.2444 22.1449 27.9106 22 27.5625 22C27.2144 22 26.8806 22.1449 26.6344 22.4027C26.3883 22.6606 26.25 23.0103 26.25 23.375V28.875Z" fill="white"/>
<path fill-rule="evenodd" clip-rule="evenodd" d="M41.6168 17.4735C41.739 17.3458 41.836 17.1941 41.9021 17.027C41.9683 16.86 42.0024 16.6809 42.0024 16.5C42.0024 16.3192 41.9683 16.1401 41.9021 15.973C41.836 15.806 41.739 15.6543 41.6168 15.5265L33.7418 7.27653C33.4953 7.01834 33.161 6.87329 32.8125 6.87329C32.464 6.87329 32.1297 7.01834 31.8833 7.27653C31.6368 7.53472 31.4983 7.8849 31.4983 8.25003C31.4983 8.61516 31.6368 8.96534 31.8833 9.22353L37.5191 15.125H14.4375C14.0894 15.125 13.7556 15.2699 13.5094 15.5278C13.2633 15.7856 13.125 16.1354 13.125 16.5C13.125 16.8647 13.2633 17.2144 13.5094 17.4723C13.7556 17.7302 14.0894 17.875 14.4375 17.875H37.5191L31.8833 23.7765C31.6368 24.0347 31.4983 24.3849 31.4983 24.75C31.4983 25.1152 31.6368 25.4653 31.8833 25.7235C32.1297 25.9817 32.464 26.1268 32.8125 26.1268C33.161 26.1268 33.4953 25.9817 33.7418 25.7235L41.6168 17.4735Z" fill="white"/>
</svg>
